<svg xmlns="http://www.w3.org/2000/svg" width="136" height="68" fill="none"><mask id="a" width="103" height="30" x="17" y="19" maskUnits="userSpaceOnUse" style="mask-type:luminance"><path fill="#fff" d="M17 19h103v30H17V19Z"/></mask><g mask="url(#a)"><path fill="#0E1DB0" d="M120 44.7309c-.8.6286-1.695 1.1261-2.651 1.474-.764.279-1.552.47-2.349.616-1.169.2132-2.36.2854-3.546.215-1.35-.08-2.663-.34-3.921-.848-1.735-.7-3.121-1.832-4.181-3.367-.876-1.27-1.452-2.673-1.817-4.166-.262-1.1067-.418-2.2358-.466-3.372-.038-.6639-.048-1.3292-.028-1.994.064-1.675.271-3.326.853-4.91.522-1.42 1.238-2.734 2.256-3.863 1.281-1.4367 2.942-2.4825 4.792-3.017 1.057-.3129 2.149-.4952 3.25-.543 1.008-.043 2.01.004 3.009.108 1.265.1376 2.512.406 3.721.801.046.015.089.038.135.054.056.02.072.065.065.114-.01.07-.033.14-.05.21l-.889 3.666-.007.035c-.032.116-.065.136-.182.093-.579-.2142-1.176-.3768-1.784-.486-.896-.163-1.802-.208-2.712-.219-.63-.0111-1.26.0401-1.88.153-.989.186-1.909.538-2.702 1.175-.727.5887-1.311 1.3352-1.707 2.183-.416.869-.67 1.785-.816 2.735-.195 1.263-.2 2.532-.12 3.8.074 1.189.312 2.348.784 3.45.386.902.907 1.706 1.642 2.366.816.734 1.777 1.153 2.844 1.361.395.077.796.117 1.192.113.924-.011 1.835-.133 2.687-.528.175-.081.338-.188.507-.28.066-.0302.121-.0803.157-.1433.035-.063.051-.1356.043-.2077-.013-.327-.004-.654-.004-.98v-3.196c0-.362-.007-.305-.316-.344-.553-.07-1.108-.12-1.661-.178l-2.456-.26c-.277-.03-.554-.06-.83-.093-.168-.02-.169-.026-.176-.205v-2.505c0-.06.002-.121.004-.181.003-.073.046-.106.116-.11.048-.003.096-.004.145-.004h8.87c.06 0 .12.011.18.018v11.258l-.001.002Zm-57.18-10.624c0-3.994 0-7.989.002-11.983 0-.44-.084-.42.438-.509 1.8403-.3059 3.7007-.476 5.566-.509.18-.001.362-.023.544-.025 1.31-.008 2.613.078 3.91.271 1.295.194 2.528.572 3.64 1.277 1.665 1.053 2.742 2.528 3.163 4.464.15.689.215 1.385.221 2.088.007.728-.026 1.45-.15 2.17-.2544 1.5149-.9687 2.9149-2.046 4.01-1.11 1.144-2.467 1.855-3.997 2.254-1.1613.3052-2.3583.4539-3.559.442-.46-.004-.92.003-1.38-.014-.412-.016-.822-.057-1.233-.088-.192-.015-.198-.012-.202.19-.001.085 0 .17 0 .255v7.917c-.004.236-.004.24-.243.24h-4.508c-.143-.007-.158-.022-.162-.175-.003-.109-.002-.218-.002-.326v-11.947l-.002-.002Zm4.915-4.536v3.629c0 .096-.002.193.001.29.004.104.042.147.147.172.047.011.095.018.144.024 1.233.14 2.464.137 3.69-.078.5497-.093 1.0787-.2819 1.563-.558.4027-.2249.756-.5286 1.0388-.893.2828-.3644.4893-.7821.6072-1.228.1763-.6429.2385-1.3116.184-1.976-.035-.472-.118-.935-.325-1.367-.44-.923-1.165-1.527-2.115-1.875-.642-.235-1.315-.32-1.992-.362-.775-.048-1.549.004-2.32.076-.169.016-.336.045-.504.07-.067.01-.108.054-.112.122-.0048.0966-.0068.1933-.006.29v3.665l-.001-.001Zm31.242 11.951c.095.37.193.742.287 1.117.2229.8911.4449 1.7824.666 2.674.043.205.042.214-.13.327-.642.424-1.347.707-2.088.905-.69.185-1.395.296-2.105.384-1.01.1278-2.0296.1629-3.046.105-1.522-.088-2.994-.406-4.385-1.052-.8559-.4023-1.644-.9354-2.336-1.58-1.154-1.062-1.955-2.36-2.552-3.794-.51-1.226-.806-2.504-.97-3.82-.178-1.421-.195-2.848-.118-4.273.077-1.429.3-2.837.785-4.192.393-1.098.907-2.138 1.593-3.085 1.33-1.833 3.076-3.092 5.253-3.743 1.0205-.3081 2.0752-.4885 3.14-.537.934-.04 1.863.01 2.791.083 1.055.083 2.083.302 3.095.6.197.058.39.13.582.204.156.059.171.082.137.238-.07.331-.15.66-.226.99-.22.954-.442 1.907-.664 2.86-.028.123-.068.147-.175.1-.921-.406-1.898-.56-2.892-.638-.6034-.0477-1.2087-.0674-1.814-.059-.844.011-1.663.152-2.441.486-1.396.597-2.405 1.598-3.062 2.959-.371.768-.594 1.582-.739 2.42-.204 1.185-.263 2.38-.204 3.578.06 1.249.255 2.476.71 3.65.318.82.752 1.57 1.355 2.217.8767.9511 2.0362 1.5949 3.307 1.836.947.19 1.9.173 2.857.087 1.0142-.0967 2.002-.379 2.914-.833.14-.069.28-.142.42-.212.008-.005.022 0 .053 0l.002-.002Zm-40.841-7.526v14.525c0 .553.066.471-.485.479-.073 0-.145 0-.218-.003-.07-.002-.114-.04-.119-.11-.006-.084-.005-.168-.005-.253v-29.267c0-.404-.033-.366.376-.364.512.003.451-.068.451.433.002 4.854.001 9.708.001 14.561l-.001-.001Zm-26.063 9.128v-.726c0-.354.056-.7.17-1.034.22-.651.664-1.047 1.353-1.164.353-.06.701-.047 1.044.043.43.113.755.37.97.762.142.26.2.543.232.833.01.09-.026.126-.126.13-.097.004-.194.002-.291.002-.292-.003-.311.038-.376-.292-.127-.652-.589-.97-1.326-.824-.399.078-.633.333-.763.698-.106.3-.136.614-.144.928-.01.436-.01.871 0 1.307.006.302.046.603.151.89.0644.1801.1686.3434.3049.4777.1362.1343.3009.2362.482.2981.181.0619.3736.0822.5636.0594.1899-.0229.3723-.0882.5335-.1912.18-.11.277-.247.26-.473-.02-.276-.002-.556-.005-.834-.002-.192-.023-.212-.203-.215-.23-.004-.46 0-.69-.003-.164-.002-.177-.012-.177-.158.003-.536-.074-.476.445-.479.4-.002.8-.002 1.199.002.146.001.172.027.173.17.002.617 0 1.233.004 1.85.0026.1091-.038.2148-.113.294-.2358.2793-.5512.4803-.904.576-.3984.1104-.8169.1275-1.223.05-.627-.125-1.062-.503-1.316-1.084-.149-.3456-.2266-.7177-.228-1.094-.004-.266 0-.533 0-.799Zm17.637-10.762c.06-.274.212-.41.455-.407.048 0 .097 0 .145.002.07.001.113.035.116.107.003.085.005.17.005.254v3.994c0 .293-.025.578-.147.85-.0699.1688-.1757.3204-.31.4442-.1344.1238-.2941.2169-.468.2728-.66.216-1.266.074-1.819-.325-.152-.11-.128-.158-.054-.271.053-.082.096-.168.148-.25.053-.082.091-.09.172-.022.29.247.621.368 1.005.331.4-.038.65-.258.72-.649.028-.166.035-.336.047-.504.003-.059.015-.132-.04-.167-.062-.04-.107.023-.151.062-.307.268-.668.32-1.055.254-.1681-.027-.3285-.0895-.4705-.1833-.1421-.0938-.2626-.2168-.3535-.3607-.1286-.1916-.217-.4073-.26-.634-.1468-.7376-.1355-1.498.033-2.231.036-.154.102-.297.18-.435.428-.765 1.53-.787 1.977-.297.032.035.058.077.125.165Zm.02 1.73c0-.276-.003-.555.003-.832.0047-.1331-.0351-.264-.113-.372-.21-.3-.501-.406-.852-.354-.146.016-.2835.0769-.3935.1743-.11.0975-.187.2266-.2205.3697-.1853.6783-.1877 1.3935-.007 2.073.087.34.325.53.675.565.358.037.634-.104.826-.41.0581-.0916.0874-.1986.084-.307-.004-.302-.002-.604-.002-.905v-.002Zm-1.541 11.698c-.056.07-.027.157-.027.236-.003.508 0 1.016-.003 1.524 0 .155-.013.169-.168.167-.642-.008-.543.1-.545-.521-.005-1.67-.001-3.34-.001-5.011 0-.11 0-.218.002-.327 0-.07.035-.113.106-.12.048-.005.096-.005.145-.006.256-.006.413.111.47.352.095-.012.134-.097.196-.15.568-.485 1.518-.336 1.908.3.161.264.242.556.273.858.0533.5303.0539 1.0646.002 1.595-.028.29-.106.57-.252.827-.207.36-.512.571-.93.615-.388.042-.748-.01-1.05-.286-.032-.03-.062-.077-.126-.053Zm-.03-1.89v.943c0 .083-.004.167.044.245.17.282.416.44.745.435.325-.005.583-.135.735-.442.108-.2302.1627-.4818.16-.736.004-.29.004-.58 0-.87-.0011-.1938-.0314-.3863-.09-.571-.175-.543-.593-.662-1.06-.562-.31.066-.53.365-.534.688-.003.29 0 .58 0 .87ZM28.16 23.5869v-2.759c0-.084.035-.138.127-.14.06-.002.12-.003.181-.003h1.563c.183 0 .362.02.54.065.52.135.876.46 1.064.953.2.529.185 1.071-.015 1.598-.181.478-.555.752-1.043.87-.1884.0464-.382.0679-.576.064-.314-.008-.63-.003-.945.001-.116.002-.146.034-.147.157-.003.544 0 1.089-.003 1.633-.005.563.07.462-.484.473-.049 0-.098 0-.146-.003-.07-.005-.11-.044-.113-.114-.004-.096-.004-.194-.004-.29l.001-2.505Zm.744-1.127v.976c0 .079.024.151.115.151.386 0 .774.018 1.158-.013.396-.033.672-.26.778-.652.0878-.3037.0819-.6268-.017-.927-.127-.375-.379-.622-.785-.647-.373-.023-.748-.006-1.122-.005-.088 0-.127.057-.127.14v.977ZM17 34.0699c.024-.47.022-.941.002-1.412.002-.063.004-.126.008-.19l.01-.091c.019-.37.124-.715.3-1.036.369-.671.957-.965 1.707-.958.156.002.316.024.467.06.519.123.88.44 1.089.927.048.11.089.227.11.345.128.755.195.615-.486.626-.173.004-.177-.004-.201-.18-.0224-.1802-.0636-.3575-.123-.529-.117-.327-.343-.512-.685-.571-.557-.097-1.008.133-1.245.646-.1193.2523-.184.527-.19.806-.008.58-.01 1.16 0 1.74.006.304.077.6.214.874.0695.1383.1673.2604.2871.3584.1197.098.2587.1698.408.2106s.3054.0498.4584.0264c.153-.0234.2993-.0788.4295-.1624.1433-.0934.2516-.2316.308-.393.086-.228.127-.465.154-.695.085-.065.173-.05.256-.048.598.012.53-.109.428.559-.031.201-.113.393-.219.573-.186.3306-.4899.5788-.851.695-.3226.108-.6657.1409-1.003.096-.58-.078-1.01-.386-1.293-.892-.1922-.3378-.3028-.7159-.323-1.104l-.01-.092-.009-.19.002.001Zm27.035-8.576c.109.048.152.125.204.19.204.25.265.225-.05.515-.08.073-.175.132-.271.18-.2604.1315-.5467.2038-.8384.2117-.2916.008-.5814-.0486-.8486-.1657-.49-.201-.727-.62-.832-1.116-.0471-.2127-.0689-.4302-.065-.648.011-.362-.016-.725.046-1.086.039-.2515.1194-.4948.238-.72.1068-.2121.2665-.393.4638-.5251.1973-.1321.4254-.211.6622-.2289.205-.02.41-.011.614.032.393.084.68.302.861.66.088.173.142.357.18.549.07.368.09.865.03 1.206H42.4c-.084 0-.17 0-.253.008-.053.003-.092.039-.091.092.008.303.033.605.188.877.0581.1068.1402.1987.2398.2684.0996.0698.214.1155.3342.1336.404.068.77-.003 1.073-.3.043-.042.09-.083.144-.133Zm-1.127-1.554h.652c.143-.007.18-.04.174-.166-.005-.1808-.0346-.3602-.088-.533-.105-.318-.316-.498-.623-.518-.34-.023-.614.082-.783.402-.11.209-.134.435-.17.66-.016.098.04.152.151.154.23.003.459 0 .688 0l-.001.001Zm-7.736 1.541c.07.077.129.137.181.202.218.261.216.273-.022.492-.1895.1712-.4205.2898-.67.344-.3653.0893-.7474.0838-1.11-.016-.466-.129-.776-.432-.944-.878-.0936-.2365-.1447-.4877-.151-.742-.006-.47-.04-.942.058-1.41.062-.3.167-.579.353-.825.213-.282.492-.457.841-.522.2505-.0465.5077-.0434.757.009.421.085.718.325.898.715.113.244.172.504.195.768.023.264.015.531.022.797.002.09-.04.133-.13.133h-1.962c-.072 0-.145 0-.217.008-.052.006-.084.045-.087.098-.02.307.027.603.177.875.11.201.284.335.504.384.397.09.77.038 1.09-.238l.217-.194Zm-1.16-1.545v.005h.471c.388 0 .398.04.346-.41-.0147-.1077-.0405-.2136-.077-.316-.097-.29-.293-.468-.606-.492-.324-.026-.6.064-.771.363-.13.226-.168.476-.192.729-.007.068.032.118.103.12.242.002.484 0 .725 0l.001.001Zm5.236 19.967c.004-.34.012-.678.108-1.008.134-.459.386-.835.817-1.063.196-.1041.4113-.1666.6326-.1837.2212-.0171.4436.0116.6533.0844.2096.0727.402.1879.5652.3383.1631.1504.2935.3329.3829.536.035.076.065.156.086.238.191.73.198 1.463-.023 2.183-.157.513-.492.898-1.025 1.042-.892.24-1.687-.094-2.03-.99-.0806-.2025-.1282-.4165-.141-.634l-.025-.544-.001.001Zm.732-.011c.009.193.012.386.028.578.02.231.093.449.218.645.1096.1837.2848.319.4902.3788.2054.0597.4258.0394.6168-.0568.275-.13.414-.37.475-.648.1226-.5554.1253-1.1305.008-1.687-.0435-.2146-.1484-.412-.302-.568-.33-.336-.83-.345-1.161-.002-.1316.1422-.2275.3135-.28.5-.09.281-.086.57-.093.86Zm-15.118-9.719c.017.213-.015.464-.052.716-.034.229-.105.448-.218.648-.337.595-.855.868-1.534.824-.654-.042-1.104-.385-1.366-.975-.0681-.155-.1165-.3179-.144-.485-.0827-.5248-.0817-1.0595.003-1.584.0314-.1911.0929-.3761.182-.548.1826-.3808.5083-.6741.906-.8161.3978-.1419.8355-.121 1.218.0581.446.2.718.56.872 1.012.093.276.125.565.133.856.003.084 0 .169 0 .294Zm-.73.017c0-.148.007-.257 0-.364-.022-.314-.077-.617-.237-.899-.313-.554-1.124-.558-1.43-.005-.089.16-.164.323-.194.502-.0794.4643-.0794.9387 0 1.403.033.191.112.366.215.532.337.545 1.217.502 1.478-.11.052-.123.098-.246.119-.378.037-.24.064-.478.049-.68v-.001Zm21.531 11.63c-.066-.001-.109.045-.157.08-.36.263-.764.29-1.179.2-.318-.068-.528-.284-.661-.572-.0909-.1987-.1458-.4121-.162-.63-.0095-.1325-.0138-.2652-.013-.398v-2.393c0-.096 0-.193.01-.29.003-.027.039-.051.063-.075.008-.007.023-.007.035-.007.192.002.386-.03.576.022.099.168.042.352.043.526.007.762.005 1.523.002 2.285 0 .195.013.386.09.569.114.272.305.383.603.347.108-.012.218-.019.316-.072.283-.157.463-.369.459-.718-.009-.858-.003-1.716-.003-2.574 0-.097 0-.194.005-.29.003-.055.04-.083.093-.092.0238-.0043.0479-.0063.072-.006.657.01.543-.099.547.517.006 1.135.001 2.272.001 3.408l-.001.29c-.002.07-.038.114-.11.117-.1086.0047-.2173.0067-.326.006-.224-.002-.224-.003-.302-.251l-.001.001Zm-1.424-13.504c.097-.079.167-.143.243-.197.152-.1114.3265-.1883.5113-.2254.1848-.0372.3754-.0336.5587.0104.331.07.564.272.697.58.09.212.148.435.154.668.007.265.01.532.01.797.002.653 0 1.306 0 1.96 0 .084.002.169-.002.253-.004.089-.057.127-.142.127h-.036c-.643-.01-.544.091-.549-.523-.005-.774 0-1.548-.002-2.322 0-.145.001-.29-.038-.431-.126-.462-.61-.65-1.001-.372-.264.188-.437.428-.429.788.018.822.006 1.645.006 2.467 0 .096-.002.193-.008.289-.003.052-.036.087-.09.096-.012.001-.024.006-.036.006-.688-.006-.58.104-.582-.523-.006-1.136-.002-2.273-.002-3.41 0-.096 0-.194.005-.29.003-.051.027-.099.083-.1.169-.006.338-.005.507-.003.059 0 .08.052.093.097.02.076.03.154.05.257l-.001.001Zm-17.75-.026c.098-.024.154-.11.23-.167.312-.23.66-.294 1.034-.227.1566.0236.3048.0864.4306.1825.1259.0962.2254.2226.2894.3675.12.257.18.53.182.808.008.944.003 1.889.003 2.832-.0006.0362-.0036.0722-.009.108-.007.057-.046.08-.098.088-.0238.0043-.0478.0067-.072.007-.642-.01-.544.097-.548-.521-.006-.775-.002-1.55-.001-2.324 0-.157-.005-.313-.053-.466-.122-.385-.498-.575-.863-.4-.32.153-.543.388-.538.785.01.836.003 1.67.002 2.506 0 .084.003.17-.001.254-.006.141-.027.167-.178.166-.644-.008-.546.1-.55-.52-.004-1.137-.001-2.275-.001-3.413 0-.096 0-.193.005-.29.003-.07.046-.106.117-.108.133-.002.266-.004.4-.002.139.003.141.008.163.138.011.066-.024.147.056.196Zm9.081 3.745c-.069-.005-.107.049-.153.083-.325.234-.687.283-1.072.224-.38-.058-.638-.278-.785-.626-.1054-.2452-.1609-.5091-.163-.776-.005-.93-.003-1.863-.001-2.794 0-.167.022-.186.187-.19.133-.003.267 0 .4 0 .09 0 .128.054.128.139.002.096.002.194.002.29v2.141c0 .242.01.481.067.72.078.324.34.56.776.445.119-.0254.231-.0766.328-.15.183-.151.301-.325.297-.587-.013-.846-.005-1.693-.005-2.54 0-.084.002-.169 0-.254-.003-.172.024-.209.21-.205.606.013.517-.097.52.511.004 1.137 0 2.274 0 3.41 0 .097.002.194-.002.29-.004.067-.037.115-.11.119-.0966.0037-.1933.005-.29.004-.233 0-.232-.001-.306-.233-.003-.01-.018-.015-.027-.022l-.001.001Zm-3.108-2.842h-.465c-.206-.003-.207-.003-.285-.22-.175-.483-.639-.538-.982-.4-.352.143-.454.697-.096.92.176.11.36.198.55.278.258.108.51.223.75.365.463.271.644.68.567 1.195-.075.51-.398.818-.877.961-.3626.1076-.7491.1044-1.11-.009-.258-.0746-.4872-.2258-.6573-.4337-.17-.2079-.2728-.4626-.2947-.7303-.008-.087.031-.136.124-.139.157-.004.314 0 .473-.003.07 0 .116.028.135.094.02.07.03.143.054.21.061.165.168.295.33.369.255.116.52.122.775.015.38-.16.451-.615.143-.89-.164-.146-.363-.24-.56-.332-.187-.088-.376-.168-.563-.255-.066-.03-.129-.066-.192-.102-.403-.23-.619-.568-.595-1.041.025-.465.255-.808.663-1.011.2219-.1152.4682-.1755.7183-.1758.25-.0004.4965.0592.7187.1738.45.223.672.608.676 1.161Zm15.808-9.529h-.667c-.026-.115-.047-.23-.078-.343-.11-.398-.34-.589-.714-.6-.414-.01-.705.183-.831.565-.041.125-.07.258-.08.39-.035.433-.034.869-.002 1.302.009.132.037.264.075.39.108.364.33.542.704.575.084.008.17.005.252-.004.1275-.0106.2491-.0579.3503-.1361.1011-.0783.1774-.1842.2197-.3049.044-.111.066-.231.101-.358.21-.042.422-.022.635-.018.009.785-.537 1.393-1.285 1.45-.2292.0206-.4603.0014-.683-.057-.44-.119-.741-.395-.923-.804-.0984-.2214-.1576-.4583-.175-.7-.0357-.4577-.0347-.9175.003-1.375.025-.291.108-.569.253-.825.208-.368.522-.593.938-.676.1662-.033.3357-.0464.505-.04.714.021 1.234.471 1.357 1.175.02.118.028.238.047.395l-.002-.001Zm-7.423-3.32c.05.13.027.25.02.37-.011.187.004.267-.251.229-.048-.007-.097-.003-.145 0-.23.012-.38.13-.466.341-.103.257-.073.523-.067.788 0 .053.04.086.094.089.17.005.339.007.508.012.07.003.114.042.115.113 0 .143.02.289-.019.437-.177.06-.36.022-.538.034-.14.01-.16.028-.165.176-.004.084-.002.169-.002.254v2.9c0 .097 0 .194-.004.29-.002.07-.039.11-.11.118-.023.002-.047.005-.071.004-.64-.013-.54.104-.543-.522-.006-.942-.002-1.885-.002-2.828 0-.096 0-.193-.006-.29-.0012-.0245-.0113-.0477-.0284-.0652-.0172-.0175-.0401-.0281-.0646-.0298-.097-.007-.194-.004-.29-.009-.163-.008-.175-.021-.18-.198-.0015-.06-.0015-.12 0-.18.005-.19.017-.2.209-.21.107-.006.238.041.316-.034.092-.088.041-.23.043-.348.003-.218.01-.433.074-.645.168-.569.586-.877 1.227-.86.048.002.096.01.144.02.07.013.138.03.204.044h-.002Zm9.8 5.569c0 .184-.002.328 0 .471 0 .09-.052.126-.128.147-.178.051-.359.063-.54.034-.1205-.0171-.2348-.0645-.3321-.1375-.0974-.0731-.1748-.1696-.2249-.2805-.11-.223-.131-.461-.131-.705v-2.285c-.001-.399.046-.41-.385-.404l-.146-.002c-.07 0-.111-.036-.12-.106-.003-.023-.003-.048-.003-.072.002-.451-.038-.404.371-.408.279-.003.28-.006.283-.282.003-.24.004-.48.006-.73.237-.037.45-.028.67-.006.05.248.02.49.026.73.008.282.005.282.276.29h.073c.307 0 .31-.026.306.326 0 .049 0 .098-.003.145-.006.069-.042.11-.114.111-.133.004-.266.001-.4.008-.08.004-.133.049-.134.138 0 .048-.003.096-.003.145 0 .749-.001 1.499.002 2.248 0 .108.011.218.032.323.049.24.135.308.37.311.07 0 .142-.006.25-.011l-.001.002Zm-10.486 5.025c0 .285-.002.563 0 .84.002.152.019.17.162.175.11.004.218 0 .327.003.13.004.162.025.16.139 0 .505.074.44-.398.444l-.109.002c-.084 0-.137.036-.141.125-.003.049-.003.097-.003.146 0 .762-.001 1.524.002 2.285 0 .109.008.219.032.324.051.218.163.295.392.289.06-.002.12-.015.194-.025.062.177.033.355.024.532-.002.027-.035.058-.06.08-.017.014-.045.015-.069.02-.669.175-1.12-.12-1.205-.77-.0155-.1197-.0235-.2403-.024-.361-.003-.726-.001-1.451-.001-2.177v-.217c-.005-.246-.006-.247-.236-.25-.085-.002-.17.001-.255-.002-.164-.006-.174-.017-.178-.197-.002-.06 0-.12 0-.182-.003-.173.025-.203.21-.208.141-.004.314.066.418-.038.103-.104.024-.277.04-.418.023-.186-.049-.381.053-.56.214-.047.428-.036.664.002l.001-.001Zm-2.753 2.242v-2.646c0-.097.003-.193.007-.29.003-.053.034-.087.088-.097.0237-.0047.0478-.0071.072-.007.644.011.546-.105.548.516.005 1.728.002 3.455.002 5.183 0 .096.002.193-.002.29-.005.124-.033.158-.144.16-.145.004-.29.003-.435 0-.087-.001-.133-.051-.134-.136-.002-.097-.002-.194-.002-.29v-2.685.002Zm-.48 10.728v-1.814c0-.085 0-.17.003-.254.003-.074.05-.105.118-.106.121-.001.242-.003.363-.001.166.001.166.003.228.189.025.075.066.089.127.026.0981-.1085.2217-.1908.3597-.2394.138-.0486.2859-.0618.4303-.0386.13.017.158.048.164.189.004.06.004.121 0 .181-.005.108.039.23-.025.32-.074.102-.202.026-.304.03-.445.022-.73.315-.73.776-.005.846 0 1.693-.002 2.54 0 .381.043.367-.378.366-.388-.001-.354.024-.355-.35v-1.814h.001Zm-.538-19.572v-1.814c0-.085.002-.17.008-.253.001-.0244.0113-.0475.0288-.0646.0174-.0171.0408-.0269.0652-.0274.133-.008.266-.01.398-.01.166.002.166.004.22.198.02.077.07.095.126.034.0909-.1063.2057-.1894.3351-.2424.1294-.0531.2696-.0745.4089-.0626.171.012.212.05.216.218.004.12.004.241 0 .362-.004.145-.02.158-.17.159-.061 0-.121-.006-.181-.002-.1896.008-.3691.0876-.5023.2227-.1332.1351-.2103.3156-.2157.5053-.011.277-.002.556-.002.834v1.742c0 .084-.001.169-.005.253-.003.071-.046.106-.117.109-.0483.0014-.0967.0021-.145.002-.525-.006-.466.066-.467-.458-.003-.569-.001-1.137-.001-1.705Zm6.025 9.754v1.882c0 .072-.002.144-.008.216-.005.052-.036.093-.091.094-.17.005-.338.006-.507.004-.067 0-.113-.038-.12-.108-.0041-.0599-.0057-.12-.005-.18v-3.763c0-.06.003-.12.007-.18.004-.056.04-.084.093-.092.012-.002.024-.005.035-.005.703.013.585-.122.593.541.007.53.002 1.062.002 1.592l.001-.001Zm.059-3.253c.0002.0756-.0198.1498-.0581.2151-.0382.0652-.0932.119-.1592.1557-.0661.0368-.1408.0551-.2163.0532-.0756-.0019-.1493-.024-.2134-.064-.0738-.0426-.1278-.1127-.15-.195-.0148-.0582-.0222-.118-.022-.178-.002-.278.156-.447.409-.441.24.005.415.2.41.454Z"/></g></svg>