<svg xmlns="http://www.w3.org/2000/svg" width="20" height="20" fill="none"><path fill="#fff" d="M10 1.80723h4.0964c.9638 0 1.4458.24096 1.8072.36145.4819.24096.8434.36144 1.2048.72289.3615.36144.6024.72289.7229 1.20482.1205.36144.241.84337.3615 1.80723V14.0964c0 .9638-.241 1.4458-.3615 1.8072-.2409.4819-.3614.8434-.7229 1.2048-.3614.3615-.7229.6024-1.2048.7229-.3614.1205-.8434.241-1.8072.3615H5.90362c-.96386 0-1.44579-.241-1.80723-.3615-.48193-.2409-.84338-.3614-1.20482-.7229-.36145-.3614-.60241-.7229-.72289-1.2048-.12049-.3614-.24097-.8434-.36145-1.8072V5.90362c0-.96386.24096-1.44579.36145-1.80723.24096-.48193.36144-.84338.72289-1.20482.36144-.36145.72289-.60241 1.20482-.72289.36144-.12049.84337-.24097 1.80723-.36145H10ZM10 0H5.90362C4.81928 0 4.09639.240965 3.49398.481928c-.60241.240964-1.20482.602412-1.80723 1.204822-.60241.60241-.843376 1.08434-1.204822 1.80723C.240965 4.09639.120482 4.81928 0 5.90362V14.0964c0 1.0843.240965 1.8072.481928 2.4096.240964.6024.602412 1.2048 1.204822 1.8073.60241.6024 1.08434.8433 1.80723 1.2048.60241.2409 1.3253.3614 2.40964.4819H14.0964c1.0843 0 1.8072-.241 2.4096-.4819.6024-.241 1.2048-.6024 1.8073-1.2048.6024-.6025.8433-1.0844 1.2048-1.8073.2409-.6024.3614-1.3253.4819-2.4096V5.90362c0-1.08434-.241-1.80723-.4819-2.40964-.241-.60241-.6024-1.20482-1.2048-1.80723-.6025-.60241-1.0844-.843376-1.8073-1.204822C15.9036.240965 15.1807.120482 14.0964 0H10Z"/><path fill="#fff" d="M10 4.81928c-2.89157 0-5.18072 2.28915-5.18072 5.18072 0 2.8916 2.28915 5.1807 5.18072 5.1807 2.8916 0 5.1807-2.2891 5.1807-5.1807 0-2.89157-2.2891-5.18072-5.1807-5.18072Zm0 8.55422c-1.80723 0-3.37349-1.4458-3.37349-3.3735 0-1.80723 1.44578-3.37349 3.37349-3.37349 1.8072 0 3.3735 1.44578 3.3735 3.37349 0 1.8072-1.5663 3.3735-3.3735 3.3735ZM15.3012 5.90362c.6654 0 1.2048-.53942 1.2048-1.20482 0-.66541-.5394-1.20482-1.2048-1.20482-.6654 0-1.2048.53941-1.2048 1.20482 0 .6654.5394 1.20482 1.2048 1.20482Z"/></svg>