<svg xmlns="http://www.w3.org/2000/svg" width="136" height="68" fill="none"><path fill="url(#a)" fill-rule="evenodd" d="m41.0132 29.329 4.9358-4.9355c-1.8951-2.0296-4.3571-3.4421-7.0658-4.0537-2.7087-.6116-5.5387-.3941-8.1221.6244-2.5834 1.0184-4.8005 2.7906-6.363 5.0861S22 31.0583 22 33.835s.8356 5.4892 2.3981 7.7847c1.5625 2.2955 3.7796 4.0677 6.363 5.0861 2.5834 1.0185 5.4134 1.236 8.1221.6244 2.7087-.6116 5.1707-2.0241 7.0658-4.0537l-4.9358-4.9341c-1.4501 1.6651-3.0782 2.3845-5.2961 2.3375-.7796-.0148-1.5457-.2062-2.2407-.5598-.7208-.3661-.745-1.4458.1054-1.5569.7848-.1066 1.5417-.3634 2.2293-.7563.4644.2735 1.5883.6224 2.2293.7606.7328-.2937 1.3886-.7512 1.9173-1.3375-.745.2849-2.725-.084-3.4258-.4643v-1.5669l1.4857-1.4614h-3.6224v-3.0681c.0007-.2601-.0953-.5113-.2693-.7047-.1739-.1934-.4135-.3154-.6723-.3422l-2.7848-.2963c.6432-.7402 1.4377-1.3338 2.33-1.7405.8923-.4068 1.8616-.6173 2.8422-.6173.9806 0 1.9499.2105 2.8422.6173.8923.4067 1.6868 1.0003 2.33 1.7405l-2.9472 2.9471v-1.6381c-.001-.2556.0916-.5028.2604-.6948.1687-.1921.4019-.3158.6555-.3478l2.0313-.2664v.0029Zm-8.6037 5.1277h1.9287l.7564.7436v1.5668c-.7037.3817-2.7264.7492-3.4714.4572-.8547-.3518-1.527-2.8801.7877-2.7633l-.0014-.0043Zm.3817-1.2634c-1.2321 0-2.6737-1.0469-2.6737-2.3559l2.6752.2849-.0015 2.071Z" clip-rule="evenodd"/><path fill="#2C1F82" fill-rule="evenodd" d="M54.0755 34.6178c.6215.0079 1.236-.1312 1.7934-.4059.5083-.2373.9519-.5935 1.2934-1.0384l-1.2934-1.2549c-.4815.5569-1.0284.8304-1.6609.8304-.2226.005-.4439-.0359-.65-.1202s-.3927-.2102-.548-.3698c-.3094-.3354-.4812-.775-.4812-1.2313 0-.4564.1718-.896.4812-1.2314.1562-.1619.3441-.2898.5519-.3758.2078-.086.4312-.1283.6561-.1242.5697 0 1.1224.2635 1.6224.792l1.2265-1.3304c-.651-.8204-1.7364-1.3403-2.9814-1.3403-.4748-.0118-.9471.0733-1.3879.2502-.4409.1768-.841.4416-1.1761.7782-.6895.6794-1.0385 1.5483-1.0385 2.6052s.3391 1.9058 1.0185 2.5752c.3399.328.7417.585 1.1819.7562.4401.1711.91.253 1.3821.2409l.01-.0057Zm10.2433-.104-2.4059-6.9794H59.997l-2.4828 6.9794h2.0113l.349-1.1395h2.1039l.3305 1.1395h2.0099Zm-3.9728-2.8302.604-1.9258.5854 1.9258H60.346Zm7.024 2.8302v-3.0154l1.5854 2.1807h.7649l1.5855-2.1807v3.0197h1.9444v-6.9795h-1.5299l-2.3774 3.3844-2.3874-3.3787h-1.5157v6.9795l1.9302-.01Zm12.1307-3.8315c.2858-.1122.5308-.3083.7027-.5627.172-.2543.2627-.5548.2602-.8617.0009-.229-.0477-.4554-.1423-.6638-.0946-.2085-.2332-.3941-.4061-.5441-.3675-.339-.877-.509-1.5284-.5099h-3.3874v6.9794h3.5611c.671 0 1.218-.188 1.6424-.5697.2073-.1879.3712-.4185.4804-.6761.1092-.2575.1611-.5357.1521-.8152 0-.8675-.463-1.5669-1.3304-1.7649l-.0043-.0113Zm-1.4914-1.4999c.0682-.005.1368.0043.2012.0273.0645.023.1235.0592.1732.1062.0497.0471.0891.1039.1156.167.0265.0631.0396.131.0384.1994 0 .265-.188.4915-.6125.4915h-.9971v-.9971l1.0812.0057Zm-1.0855 3.6706v-1.1395h1.265c.4059 0 .6224.2535.6224.5698 0 .3162-.2065.5697-.688.5697h-1.1994ZM88.13 34.5138l-1.4244-2.5197c.8219-.4145 1.1994-1.2079 1.1994-2.0853.0098-.3142-.0446-.6271-.16-.9196-.1153-.2924-.2892-.5582-.5109-.7811-.443-.443-1.104-.6609-1.9715-.6609h-3.0398v6.9795h1.9629v-2.1879h.6026l1.1054 2.1793 2.2363-.0043Zm-2.8902-5.1861c.0866-.0051.1732.0083.2542.0394.0809.0311.1542.0792.2151.141.0608.0618.1077.1358.1376.2172.0299.0814.042.1683.0356.2547 0 .3675-.2265.6595-.6895.6595h-1.0071v-1.3118h1.0541Zm4.2036 5.1904h1.9814v-6.9795h-1.98v6.9795h-.0014Zm6.6195 0c1.112 0 1.98-.3115 2.6039-.9344.6324-.6224.9444-1.4714.9444-2.5468 0-1.0754-.312-1.9357-.9345-2.5639-.6224-.6281-1.4814-.9344-2.5953-.9344h-2.9059v6.9795h2.8874Zm-.9245-5.0865h1.0185c.1998-.0121.3995.0246.5819.107.1825.0824.3421.208.465.3659.2502.3197.3808.7167.369 1.1225.0131.4111-.1173.814-.369 1.1395-.123.1577-.2826.2831-.4651.3653-.1824.0821-.3821.1186-.5818.1061h-1.0171v-3.2063h-.0014Zm9.3006 5.1862c1.198 0 2.265-.4344 3.198-1.2933V30.225h-3.167v1.6609h1.406v.4144c-.274.2365-.84.453-1.406.453-.238.013-.475-.0258-.697-.1136-.221-.0878-.421-.2225-.585-.3949-.309-.3371-.477-.7793-.471-1.2364-.006-.2233.034-.4455.117-.653.083-.2076.207-.3963.364-.5548.165-.1655.363-.2952.581-.3812.217-.086.45-.1265.684-.1188.55.0024 1.081.1992 1.5.5555l1.226-1.4813c-.755-.6378-1.718-.9768-2.706-.953-1.086 0-1.982.3405-2.707 1.0199-.725.6794-1.075 1.5383-1.075 2.5952-.014.4777.071.953.25 1.3961.179.4432.447.8446.788 1.1792.698.6709 1.594 1.0099 2.69 1.0099l.01-.0043Zm9.903-.104v-1.8075h-3.218v-.7734h2.991V30.131h-2.991v-.7748h3.236v-1.8119h-5.219v6.9795l5.201-.01ZM53.2336 40.1257v-.6908h-1.3931v-2.1793h-.7308v2.8701h2.1239Zm2.5968 0v-.6652H54.49v-.4273h1.2421v-.668H54.49v-.4273h1.3432v-.6724h-2.074v2.8702l2.0712-.01Zm3.1495 0-1.0214-2.8701h-.6752l-1.0484 2.8701h.7493l.1709-.5242h.9131l.1667.5242h.745Zm-1.6424-1.1537.2849-.8547.272.8547h-.5569Zm4.4799 1.1537-.6225-1.064c.1618-.075.2979-.1962.3911-.3482.0933-.152.1396-.3282.1331-.5064.0043-.1256-.0173-.2507-.0634-.3676-.046-.1168-.1156-.223-.2044-.3119-.1051-.0964-.2289-.1702-.3636-.217-.1347-.0468-.2776-.0655-.4198-.055h-1.1966v2.8701h.7265v-.9501h.2849l.5042.9515.8305-.0014Zm-1.1581-2.2049c.4046-.0314.4387.6438-.0271.621h-.4344v-.621h.4615Zm3.574.8916-1.3276-1.5568h-.5199v2.8701h.7122v-1.5383l1.3048 1.5383h.5484v-2.8701h-.7122v1.5568h-.0057Zm1.4729 1.3133h.7307v-2.8701h-.7307v2.8701Zm3.3375-1.3133-1.3248-1.5568h-.5199v2.8701h.7122v-1.5383l1.3034 1.5383h.5484v-2.8701h-.7122v1.5568h-.0071Zm2.8489 1.356c.2449.0014.4876-.0464.7137-.1406.2261-.0942.431-.2329.6025-.4078v-1.242h-1.3091v.621h.6524v.2493c-.1813.1491-.409.2303-.6438.2293-.1061.0036-.2118-.0154-.31-.0557-.0982-.0402-.1868-.1009-.2598-.1779-.1422-.1508-.2199-.3511-.2165-.5583-.0032-.1046.0151-.2087.0539-.3058.0387-.0972.0971-.1853.1714-.2589.0742-.0736.1629-.1312.2604-.1691.0975-.0378.2017-.0552.3063-.0511.2501.0001.4911.0941.6752.2635l.4615-.5398c-.3117-.2746-.7142-.4238-1.1296-.4188-.4085-.0118-.8049.1388-1.1025.4188-.2784.2833-.4356.6637-.4386 1.0608-.0029.3972.1487.7799.4229 1.0672.1455.1391.3174.2476.5055.319.1882.0715.3888.1044.5899.0969h-.0057Zm4.0611 0c.2544.0039.5059-.0533.7336-.1666.2079-.0999.3902-.246.5328-.4273l-.4815-.4615c-.0871.1132-.1988.2052-.3266.2691-.1278.0639-.2684.098-.4113.0998-.1021.0022-.2036-.0164-.2984-.0546-.0947-.0382-.1808-.0952-.2528-.1676-.0725-.0734-.1295-.1607-.1674-.2567-.0379-.0959-.0561-.1985-.0534-.3017-.0034-.1049.0145-.2094.0524-.3073.0379-.0979.0952-.1871.1684-.2624.0721-.0738.1587-.1318.2542-.1705.0956-.0388.1982-.0573.3013-.0546.1388.0051.275.0396.3995.1012.1245.0617.2345.149.3227.2563l.4615-.4857c-.1479-.1828-.3357-.3292-.5491-.4279-.2134-.0988-.4465-.1473-.6816-.1418-.1966-.0038-.3919.0324-.5741.1064-.1822.0739-.3475.1841-.4859.3238-.1383.1397-.2469.306-.3191.4889-.0722.1829-.1065.3785-.1009.575-.0065.1969.0281.393.1017.5757.0736.1827.1845.3481.3256.4855.1396.1341.3044.2391.4848.309.1805.07.373.1034.5665.0984l-.0029-.0029Zm3.866-.0427v-.6652h-1.3404v-.4273h1.2435v-.668h-1.2435v-.4273h1.3433v-.6724h-2.0769v2.8702l2.074-.01Zm2.5298-1.3133-1.329-1.5568h-.5242v2.8701h.7123v-1.5383l1.3048 1.5383h.547v-2.8701h-.7123v1.5568h.0014Zm2.0356 1.3133h.7336v-2.1708h.792v-.6993h-2.3219v.6993h.7963v2.1708Zm4.1309 0v-.6652h-1.3404v-.4273h1.2436v-.668h-1.2436v-.4273h1.3404v-.6724h-2.0754v2.8702l2.0754-.01Zm3.027 0-.6225-1.064c.1619-.0749.2981-.196.3914-.3481.0932-.152.1395-.3283.1328-.5065.0043-.1256-.0173-.2507-.0634-.3676-.046-.1168-.1156-.223-.2044-.3119-.1051-.0964-.2288-.1702-.3636-.217-.1347-.0468-.2776-.0655-.4198-.055h-1.1966v2.8701h.7265v-.9501h.2849l.5042.9515.8305-.0014Zm-1.1581-2.2049c.4046-.0314.4387.6438-.0271.621h-.4273v-.621h.4544Z" clip-rule="evenodd"/><defs><linearGradient id="a" x1="33.9208" x2="43.5439" y1="36.0278" y2="25.0012" gradientUnits="userSpaceOnUse"><stop stop-color="#2C1F82"/><stop offset="1" stop-color="#00A6E8"/></linearGradient></defs></svg>