<svg xmlns="http://www.w3.org/2000/svg" width="214" height="46" fill="none"><path fill="#0F1826" d="M.001 13.26c0-.316.141-.475.424-.475h1.401c.099 0 .196.025.283.072.11.072.196.176.244.298l6.402 12.657.412 1.228-.13-1.237-.102-12.542a.527.527 0 0 1 .11-.343.395.395 0 0 1 .327-.134h1.44a.413.413 0 0 1 .296.109c.077.073.116.19.116.355v17.45c0 .31-.15.465-.45.465H9.41a.713.713 0 0 1-.295-.072.517.517 0 0 1-.245-.289L2.508 18.325l-.45-1.263.144 1.276.074 12.346c0 .318-.137.477-.411.477H.424c-.282 0-.423-.159-.423-.477V13.261ZM26.608 30.671c.05.145.045.264-.02.354a.334.334 0 0 1-.287.135h-1.659a.585.585 0 0 1-.282-.077.42.42 0 0 1-.194-.296l-.862-3.39H17.75l-.849 3.39a.424.424 0 0 1-.192.296.59.59 0 0 1-.283.077h-1.655a.317.317 0 0 1-.283-.135.412.412 0 0 1-.026-.354l4.9-17.501a.565.565 0 0 1 .186-.31.45.45 0 0 1 .277-.09h1.426c.102 0 .2.032.283.09a.554.554 0 0 1 .193.31l4.88 17.501ZM18.3 25.232h4.461l-2.032-8.067-.192-1.366-.193 1.366-2.044 8.067ZM34.524 13.247c0-.17.042-.288.129-.36a.423.423 0 0 1 .27-.103h1.542c.171 0 .288.044.354.135.07.114.104.247.096.38l-.013 13.622a4.765 4.765 0 0 1-.354 1.869 4.173 4.173 0 0 1-2.385 2.332 4.789 4.789 0 0 1-1.76.322 4.977 4.977 0 0 1-1.924-.38 4.189 4.189 0 0 1-1.513-1.024.916.916 0 0 1-.206-.335c-.05-.138-.017-.267.103-.387l.835-.98c.12-.12.238-.167.354-.144.123.03.233.097.315.193.233.21.495.386.778.522.354.173.744.259 1.138.251a2.09 2.09 0 0 0 1.608-.709c.204-.238.361-.514.462-.811.114-.336.17-.69.166-1.044l.005-13.349ZM40.447 18.712a7.922 7.922 0 0 1 .36-2.41 5.85 5.85 0 0 1 1.074-1.991 5.077 5.077 0 0 1 1.774-1.354c.707-.33 1.527-.496 2.462-.496.925 0 1.742.166 2.45.496a5.24 5.24 0 0 1 1.785 1.345 5.735 5.735 0 0 1 1.093 1.986c.248.78.371 1.592.366 2.41v6.56a7.784 7.784 0 0 1-.366 2.407 5.79 5.79 0 0 1-1.086 1.985 5.15 5.15 0 0 1-1.786 1.347c-.713.33-1.532.496-2.46.496-.926 0-1.74-.165-2.442-.495a5.178 5.178 0 0 1-1.774-1.348 5.792 5.792 0 0 1-1.084-1.985 7.788 7.788 0 0 1-.366-2.41v-6.543Zm2.378 6.7a5.11 5.11 0 0 0 .211 1.496c.13.44.343.849.63 1.205.28.34.632.616 1.029.806.444.205.93.306 1.419.295.491.01.979-.09 1.426-.295.401-.19.757-.465 1.041-.806.29-.353.507-.76.636-1.199.147-.482.22-.984.217-1.488V18.53c.004-.5-.069-.998-.216-1.476a3.636 3.636 0 0 0-.636-1.204 3.04 3.04 0 0 0-1.035-.819 3.51 3.51 0 0 0-2.841-.006c-.402.19-.755.467-1.035.812a3.548 3.548 0 0 0-.634 1.209 5.07 5.07 0 0 0-.211 1.482v6.884ZM53.994 13.218a.45.45 0 0 1 .11-.328.375.375 0 0 1 .277-.11H64.69a.36.36 0 0 1 .263.11.446.446 0 0 1 .11.328v1.43c0 .145-.035.252-.109.316a.385.385 0 0 1-.264.097h-3.972v15.661a.464.464 0 0 1-.104.329.353.353 0 0 1-.269.109h-1.622a.368.368 0 0 1-.282-.11.46.46 0 0 1-.104-.328V15.064h-3.956a.403.403 0 0 1-.277-.097c-.072-.064-.11-.169-.11-.316v-1.433ZM145.765 13.218a.453.453 0 0 1 .109-.328.378.378 0 0 1 .277-.11h10.31a.362.362 0 0 1 .263.11.455.455 0 0 1 .109.328v1.43c0 .145-.036.252-.109.316a.385.385 0 0 1-.263.097h-3.973v15.661a.46.46 0 0 1-.103.329.35.35 0 0 1-.269.109h-1.62a.37.37 0 0 1-.283-.11.465.465 0 0 1-.103-.328V15.064h-3.959a.406.406 0 0 1-.277-.097c-.072-.064-.109-.17-.109-.316v-1.433ZM169.666 30.671c.052.145.045.264-.019.354a.328.328 0 0 1-.288.135h-1.657a.584.584 0 0 1-.283-.077.416.416 0 0 1-.193-.296l-.864-3.39h-5.554l-.849 3.39a.416.416 0 0 1-.192.296.592.592 0 0 1-.283.077h-1.658a.314.314 0 0 1-.283-.135.41.41 0 0 1-.026-.354l4.9-17.501a.56.56 0 0 1 .186-.31.45.45 0 0 1 .276-.09h1.428c.101 0 .2.032.282.09a.546.546 0 0 1 .193.31l4.884 17.501Zm-8.304-5.439h4.461l-2.032-8.067-.193-1.366-.192 1.366-2.044 8.067ZM172.548 13.35a.599.599 0 0 1 .121-.393.444.444 0 0 1 .366-.145h1.646c.326 0 .489.181.489.542v2.203c.005.242-.044.483-.145.703a1.33 1.33 0 0 1-.379.477 1.6 1.6 0 0 1-.546.277c-.205.06-.417.09-.63.09-.266 0-.399-.107-.399-.322v-.53a.227.227 0 0 1 .027-.125.225.225 0 0 1 .089-.091.54.54 0 0 1 .271-.066.301.301 0 0 0 .25-.09.415.415 0 0 0 .072-.257.385.385 0 0 0-.058-.238.259.259 0 0 0-.213-.073h-.526a.446.446 0 0 1-.309-.116c-.085-.077-.128-.201-.128-.374l.002-1.471ZM179.671 13.26c0-.317.141-.476.424-.476h1.531c.282 0 .424.159.424.476v15.633h6.004a.42.42 0 0 1 .289.097c.072.065.109.17.109.315v1.418a.436.436 0 0 1-.022.176.435.435 0 0 1-.087.153.395.395 0 0 1-.289.11h-7.959c-.283 0-.424-.16-.424-.477V13.26ZM192.259 13.26c0-.317.144-.476.437-.476h1.529c.275 0 .412.159.412.476v17.424c0 .318-.137.477-.412.477h-1.529c-.292 0-.437-.159-.437-.477V13.26ZM202.455 18.415l-.463-1.675.155 1.66.101 12.298c.018.31-.111.464-.384.464h-1.505c-.138 0-.232-.043-.283-.129a.676.676 0 0 1-.077-.347v-17.49a.527.527 0 0 1 .109-.31.346.346 0 0 1 .277-.116h1.812a.266.266 0 0 1 .237.103c.057.089.102.184.136.284l4.223 11.238.206 1.07.206-1.084 4.251-11.226c.032-.1.078-.195.134-.284a.271.271 0 0 1 .239-.103h1.788a.335.335 0 0 1 .275.116.526.526 0 0 1 .109.31v17.49c.018.318-.097.476-.346.476h-1.508c-.255 0-.382-.155-.382-.464l.114-12.28.144-1.623-.436 1.624-3.603 9.497a.684.684 0 0 1-.154.304.341.341 0 0 1-.244.084h-1.159a.322.322 0 0 1-.231-.084.684.684 0 0 1-.154-.303l-3.587-9.5Z"/><path fill="#BA8D5B" d="m139.664 13.85-1.819.317a58.92 58.92 0 0 0-10.291 2.788V6.973l-.968.438a89.01 89.01 0 0 0-6.276 3.123L120.243.076l-1.053.676c-5.123 3.287-9.821 7.022-14.016 11.133C101.133 8.048 96.579 4.321 91.578.77L90.494 0v10.84a74.367 74.367 0 0 0-6.654-3.333l-.968-.425.046 9.282c-3.319-1.145-6.66-1.893-9.971-2.231l-1.63-.166L84.36 30.343l-.058-11.988a52.785 52.785 0 0 1 6.193 2.916v10.377l.135.184c3.835 5.186 13.924 13.622 14.352 13.978l.436.365.439-.362c.428-.353 10.524-8.702 14.361-14.09l.226-.388-.061-9.661a64.277 64.277 0 0 1 5.798-2.706v11.425l13.483-16.542Zm-12.11 4.58a58.335 58.335 0 0 1 8.676-2.547l-8.676 10.644v-8.098Zm-53.088-2.718a43.7 43.7 0 0 1 8.457 2.127l.041 8.543-8.498-10.67Zm44.409-13.11.013 8.732a69.507 69.507 0 0 0-8.57 5.806 90.134 90.134 0 0 0-1.791-1.92c-.768-.8-1.561-1.596-2.372-2.389 3.827-3.75 8.056-7.148 12.72-10.23ZM95.77 22.886a60.013 60.013 0 0 0-3.902-2.432v-7.21a75.932 75.932 0 0 1 7.38 5.106 83.76 83.76 0 0 0-3.478 4.536Zm4.546-3.687a78.27 78.27 0 0 1 3.921 3.404 75.122 75.122 0 0 0-3.603 3.924c-1.089-.9-2.34-1.87-3.738-2.862a81.878 81.878 0 0 1 3.42-4.466Zm8.941-1.2a67.178 67.178 0 0 0-4.041 3.633 79.537 79.537 0 0 0-4.014-3.49 81.054 81.054 0 0 1 3.987-4.35A93.998 93.998 0 0 1 109.257 18Zm-.207 9.482a51.02 51.02 0 0 0-3.771 3.334 51.417 51.417 0 0 0-3.593-3.398 74.162 74.162 0 0 1 3.554-3.866 78.752 78.752 0 0 1 3.81 3.93Zm-8.255.994c2.521 2.184 3.933 3.772 3.954 3.796l.5.567.516-.553c.021-.023 1.496-1.59 4.204-3.77a80.227 80.227 0 0 1 2.517 3.032l-7.023 6.67-7.132-6.623a86.164 86.164 0 0 1 2.464-3.12Zm5.424-5.894a66.233 66.233 0 0 1 3.958-3.551 77.5 77.5 0 0 1 3.886 4.787c-.129.084-.254.169-.378.252a67.33 67.33 0 0 0-3.551 2.556 80.586 80.586 0 0 0-3.915-4.044Zm5.021-4.41a67.834 67.834 0 0 1 7.653-5.24l.012 7.97a67.584 67.584 0 0 0-3.689 2.17 78.968 78.968 0 0 0-3.976-4.9ZM91.868 2.675c4.547 3.294 8.674 6.701 12.338 10.174a84.408 84.408 0 0 0-2.104 2.21 82.372 82.372 0 0 0-1.968 2.232 77.25 77.25 0 0 0-8.266-5.656v-8.96Zm-5.592 14.988c-.66-.282-1.321-.55-1.984-.801l-.037-7.656a73.166 73.166 0 0 1 6.237 3.223v7.266a54.028 54.028 0 0 0-4.216-2.032Zm8.704 6.352a87.747 87.747 0 0 0-3.112 4.84v-6.803c1.12.66 2.162 1.322 3.112 1.963Zm10.441 20.364c-1.956-1.66-9.957-8.54-13.418-13.014a87.051 87.051 0 0 1 4.102-6.57 62.01 62.01 0 0 1 3.638 2.79 90.223 90.223 0 0 0-2.885 3.68l-.371.499 8.986 8.345 8.867-8.421-.384-.495a80.85 80.85 0 0 0-2.903-3.53 64.23 64.23 0 0 1 3.824-2.73 59.137 59.137 0 0 1 3.969 6.332c-3.445 4.62-11.464 11.466-13.425 13.114Zm13.495-15.783a62.156 62.156 0 0 0-2.886-4.407 66.017 66.017 0 0 1 2.877-1.713l.009 6.12Zm1.454-8.473-.052-8.015a84.957 84.957 0 0 1 5.861-2.993v8.367a64.98 64.98 0 0 0-5.809 2.64Z"/></svg>