<svg xmlns="http://www.w3.org/2000/svg" width="21" height="21" fill="none"><path fill="#fff" d="M17.9268 3.0625C15.9512 1.09375 13.3171 0 10.5366 0 4.7561 0 .0731696 4.66667.0731696 10.4271c0 1.8229.5121964 3.6458 1.3902404 5.1771L0 21l5.56098-1.4583c1.53658.8021 3.21951 1.2395 4.97562 1.2395C16.3171 20.7812 21 16.1146 21 10.3542c-.0732-2.69795-1.0976-5.32295-3.0732-7.2917Zm-2.3414 11.0833c-.2195.5834-1.2439 1.1667-1.7561 1.2396-.4391.0729-1.0244.0729-1.6098-.0729-.3658-.1458-.878-.2917-1.4634-.5833-2.63415-1.0938-4.31707-3.7188-4.46342-3.9375-.14634-.1459-1.09756-1.38545-1.09756-2.69795s.65854-1.89583.87805-2.1875c.21951-.29167.51219-.29167.73171-.29167h.51219c.14634 0 .36586-.07291.58537.4375.21951.51042.7317 1.82292.80487 1.89584.07318.14583.07318.29166 0 .4375-.07317.14583-.14634.29166-.29268.4375-.14634.14583-.29268.36458-.36585.4375-.14634.14583-.29268.29166-.14634.51041.14634.29167.65853 1.09377 1.46341 1.82287 1.02435.875 1.82925 1.1667 2.12195 1.3126.2927.1458.439.0729.5854-.073.1463-.1458.6585-.7291.8048-1.0208.1464-.2917.3659-.2187.5854-.1458.2195.0729 1.5366.7291 1.7561.875.2927.1458.439.2187.5122.2916.0732.2188.0732.7292-.1463 1.3125Z"/></svg>